<svg width="256" height="256" viewBox="0 0 256 256" fill="none" xmlns="http://www.w3.org/2000/svg">
<circle cx="128" cy="128" r="128" fill="white"/>
<path d="M123.855 141.505C81.9864 130.142 57.0886 99.2972 60.2985 62.9095C60.2985 62.4938 60.2985 62.1058 60.438 61.6901C42.8238 79.3156 32.9582 103.151 33.0001 127.981C33.0001 177.671 73.7244 220.322 120.841 221.929C131.262 222.535 141.535 219.253 149.646 212.728C153.715 209.357 157.07 205.218 159.518 200.552C161.966 195.885 163.459 190.784 163.909 185.541C166.394 157.357 139.877 145.856 123.855 141.505ZM223 127.981C223 78.6784 183.364 36.1938 136.276 34.0876C127.018 33.4488 117.861 36.3211 110.652 42.1245C107.062 45.1077 104.102 48.7664 101.941 52.89C99.7809 57.0136 98.4632 61.5207 98.064 66.152C96.1939 87.1864 115.314 100.045 133.792 104.951C178.452 117.089 204.41 148.488 201.787 187.065C215.475 170.37 222.964 149.508 223 127.981V127.981Z" fill="#4C94D0"/>
</svg>
