<svg xmlns="http://www.w3.org/2000/svg" viewBox="0 0 451.22 73.98"><defs><style>.cls-1{fill:#333;}.cls-2{fill:#4c94d0;}</style></defs><title>simplenote-logo-color</title><g id="Layer_2" data-name="Layer 2"><g id="Logo"><path class="cls-1" d="M99.15,48.06a20.47,20.47,0,0,0,6.63,5A18.81,18.81,0,0,0,114,54.93q5.86,0,9.26-2.82a9.12,9.12,0,0,0,3.39-7.37,9.88,9.88,0,0,0-.73-4,9.07,9.07,0,0,0-2-2.81,13.05,13.05,0,0,0-2.89-2.09c-1.11-.59-2.28-1.17-3.51-1.73l-7.72-3.47a34.93,34.93,0,0,1-3.51-1.7,14.53,14.53,0,0,1-3.31-2.51,12.91,12.91,0,0,1-2.51-3.55,11,11,0,0,1-1-4.89,11.38,11.38,0,0,1,1.11-5.06A12.25,12.25,0,0,1,103.74,9a14.08,14.08,0,0,1,4.71-2.58,18.2,18.2,0,0,1,5.9-.93,17.94,17.94,0,0,1,8.21,1.81,21,21,0,0,1,5.9,4.28l-2,2.39a17.19,17.19,0,0,0-5.25-3.81,15.82,15.82,0,0,0-6.86-1.43,12.68,12.68,0,0,0-8.18,2.47,8,8,0,0,0-3.09,6.63,7.82,7.82,0,0,0,.85,3.78,9.49,9.49,0,0,0,2.16,2.66A15.43,15.43,0,0,0,109,26.19c1,.54,2,1,2.93,1.43L119.59,31a32.7,32.7,0,0,1,4.09,2.09,15.92,15.92,0,0,1,3.4,2.7,12,12,0,0,1,2.35,3.66,13.07,13.07,0,0,1,.89,5A12.83,12.83,0,0,1,129.16,50a12.59,12.59,0,0,1-3.28,4.32,15.81,15.81,0,0,1-5.13,2.86,20.54,20.54,0,0,1-6.71,1,22.21,22.21,0,0,1-9.88-2.12,23.56,23.56,0,0,1-7.32-5.52Z"/><path class="cls-1" d="M142.35,11.26a3.07,3.07,0,0,1-2.2-.84,2.88,2.88,0,0,1-.89-2.16A2.94,2.94,0,0,1,140.15,6a3.39,3.39,0,0,1,4.4,0,2.93,2.93,0,0,1,.88,2.28,2.87,2.87,0,0,1-.88,2.16A3.08,3.08,0,0,1,142.35,11.26Zm-1.77,9H144v37h-3.39Z"/><path class="cls-1" d="M158.24,20.21h2.93l.31,5.71h.23a24,24,0,0,1,5.52-4.74,11.52,11.52,0,0,1,6.13-1.89q4.47,0,6.86,2a11.09,11.09,0,0,1,3.4,5.52,36.74,36.74,0,0,1,6.29-5.52,11.14,11.14,0,0,1,6.28-2q11.12,0,11.11,14.19V57.24h-3.47V33.94q0-5.92-2-8.75c-1.33-1.88-3.42-2.82-6.24-2.82q-5,0-11.11,7V57.24h-3.4V33.94q0-5.92-2-8.75t-6.33-2.82q-5,0-11.11,7V57.24h-3.39Z"/><path class="cls-1" d="M224.27,60.48V74h-3.39V20.21h2.93l.31,4.63h.23a37.68,37.68,0,0,1,5.9-3.85,14,14,0,0,1,6.67-1.7q7.41,0,11.11,5.13t3.7,13.77a25,25,0,0,1-1.31,8.41,18.88,18.88,0,0,1-3.59,6.28,15.32,15.32,0,0,1-5.24,3.94,14.84,14.84,0,0,1-6.21,1.35A13.56,13.56,0,0,1,230,57a29,29,0,0,1-5.71-3.36Zm0-10.1a23.52,23.52,0,0,0,6,3.7,13.86,13.86,0,0,0,4.94,1.08,11,11,0,0,0,5.16-1.24,11.81,11.81,0,0,0,4.09-3.47,17.13,17.13,0,0,0,2.66-5.36,23.06,23.06,0,0,0,1-6.9,28.8,28.8,0,0,0-.66-6.33,15.37,15.37,0,0,0-2-5.05,9.9,9.9,0,0,0-3.63-3.32,11.39,11.39,0,0,0-5.4-1.19,12.12,12.12,0,0,0-5.74,1.58,35.38,35.38,0,0,0-6.37,4.51Z"/><path class="cls-1" d="M262.84,1.78h3.4v51a2.89,2.89,0,0,0,.46,1.81,1.41,1.41,0,0,0,1.16.58h.5a3.82,3.82,0,0,0,.88-.16l.62,2.78q-.54.15-1.08.27a6.58,6.58,0,0,1-1.39.12q-4.54,0-4.55-5.87Z"/><path class="cls-1" d="M278,38.8a23.3,23.3,0,0,1,1.35-8.17A18.94,18.94,0,0,1,283,24.49a16.22,16.22,0,0,1,5.17-3.85,14,14,0,0,1,6-1.35q6.63,0,10.42,4.47c2.51,3,3.78,7.2,3.78,12.65V37.8a6.59,6.59,0,0,1-.16,1.39H281.51a21.45,21.45,0,0,0,1.08,6.44,15.2,15.2,0,0,0,2.82,5.09A12.78,12.78,0,0,0,289.76,54a13.24,13.24,0,0,0,5.71,1.2,15.79,15.79,0,0,0,5.44-.89,17.55,17.55,0,0,0,4.51-2.43l1.39,2.62a43.88,43.88,0,0,1-4.9,2.47,18.84,18.84,0,0,1-13.42-.15A15.66,15.66,0,0,1,283.05,53a18.51,18.51,0,0,1-3.66-6.1A23,23,0,0,1,278,38.8Zm27.08-2.23q0-7.18-2.94-10.76a9.68,9.68,0,0,0-7.94-3.59,10.63,10.63,0,0,0-4.55,1,12.58,12.58,0,0,0-3.9,2.86,14.73,14.73,0,0,0-2.85,4.51,19.87,19.87,0,0,0-1.43,6Z"/><path class="cls-1" d="M318.38,20.21h2.93l.31,5.71h.23a33.91,33.91,0,0,1,5.87-4.74,12.6,12.6,0,0,1,6.86-1.89q5.79,0,8.49,3.47t2.7,10.72V57.24h-3.4V33.94q0-5.92-2-8.75t-6.52-2.82a10.89,10.89,0,0,0-6,1.74,36.48,36.48,0,0,0-6.09,5.21V57.24h-3.4Z"/><path class="cls-1" d="M356.34,38.8a23.87,23.87,0,0,1,1.35-8.29,18,18,0,0,1,3.62-6.13,15.5,15.5,0,0,1,5.29-3.78,15.69,15.69,0,0,1,6.32-1.31,16.07,16.07,0,0,1,6.37,1.31,15.42,15.42,0,0,1,5.32,3.78,18.37,18.37,0,0,1,3.62,6.13,23.87,23.87,0,0,1,1.35,8.29A23.23,23.23,0,0,1,388.23,47a18.39,18.39,0,0,1-3.62,6,15.58,15.58,0,0,1-5.32,3.79,16.07,16.07,0,0,1-6.37,1.31,15.64,15.64,0,0,1-11.61-5.1,18.05,18.05,0,0,1-3.62-6A23.23,23.23,0,0,1,356.34,38.8Zm3.54,0a20.88,20.88,0,0,0,1,6.64,16.32,16.32,0,0,0,2.74,5.17A12.17,12.17,0,0,0,367.75,54a11.39,11.39,0,0,0,5.17,1.2,11.62,11.62,0,0,0,5.21-1.2,12,12,0,0,0,4.16-3.35A16.53,16.53,0,0,0,385,45.44a20.88,20.88,0,0,0,1-6.64,21.15,21.15,0,0,0-1-6.71,16.92,16.92,0,0,0-2.74-5.2,11.94,11.94,0,0,0-4.16-3.4,11.74,11.74,0,0,0-5.21-1.19,11.51,11.51,0,0,0-5.17,1.19,12.08,12.08,0,0,0-4.12,3.4,16.71,16.71,0,0,0-2.74,5.2A21.15,21.15,0,0,0,359.88,38.8Z"/><path class="cls-1" d="M401.54,23.14h-5.79V20.52l5.87-.31.46-10.72H405V20.21h10.72v2.93H405V47.29a17.29,17.29,0,0,0,.27,3.2,6.49,6.49,0,0,0,1,2.47,4.72,4.72,0,0,0,1.88,1.62,7.17,7.17,0,0,0,3.13.58,9,9,0,0,0,2.35-.35,14.38,14.38,0,0,0,2.28-.81l.92,2.78a26.76,26.76,0,0,1-3.24,1,12.11,12.11,0,0,1-2.77.39,10.81,10.81,0,0,1-4.48-.81,7.15,7.15,0,0,1-2.85-2.28A9,9,0,0,1,402,51.53a23,23,0,0,1-.42-4.55Z"/><path class="cls-1" d="M420.9,38.8a23.3,23.3,0,0,1,1.35-8.17,18.78,18.78,0,0,1,3.63-6.14,16.11,16.11,0,0,1,5.17-3.85,13.94,13.94,0,0,1,6-1.35q6.64,0,10.42,4.47t3.78,12.65V37.8a6,6,0,0,1-.16,1.39H424.37a21.45,21.45,0,0,0,1.08,6.44,15.2,15.2,0,0,0,2.82,5.09A12.82,12.82,0,0,0,432.63,54a13.2,13.2,0,0,0,5.71,1.2,15.78,15.78,0,0,0,5.43-.89,17.78,17.78,0,0,0,4.52-2.43l1.39,2.62a45.68,45.68,0,0,1-4.9,2.47,18.87,18.87,0,0,1-13.43-.15A15.53,15.53,0,0,1,425.92,53a18.36,18.36,0,0,1-3.67-6.1A23,23,0,0,1,420.9,38.8ZM448,36.57q0-7.18-2.93-10.76a9.72,9.72,0,0,0-7.95-3.59,10.67,10.67,0,0,0-4.55,1,12.58,12.58,0,0,0-3.9,2.86,14.92,14.92,0,0,0-2.85,4.51,20.17,20.17,0,0,0-1.43,6Z"/><path class="cls-2" d="M32.55,38.76c-15-4.1-23.92-15.23-22.77-28.36,0-.15,0-.29.05-.44A33.88,33.88,0,0,0,0,33.88C0,51.81,14.59,67.2,31.47,67.78a15,15,0,0,0,10.32-3.32,14.37,14.37,0,0,0,5.11-9.81C47.79,44.48,38.29,40.33,32.55,38.76Zm35.52-4.88C68.07,16.09,53.87.76,37,0a13.13,13.13,0,0,0-9.18,2.9,12.72,12.72,0,0,0-4.51,8.67c-.67,7.59,6.18,12.23,12.8,14,16,4.38,25.3,15.71,24.36,29.63A33.86,33.86,0,0,0,68.07,33.88Z"/></g></g></svg>